<mxfile host="app.diagrams.net" agent="Mozilla/5.0 (Windows NT 10.0; Win64; x64) AppleWebKit/537.36 (KHTML, like Gecko) Chrome/133.0.0.0 Safari/537.36 Edg/133.0.0.0" version="25.0.1">
  <diagram name="Page-1" id="1lV13vlFgT22o_FHp8tt">
    <mxGraphModel dx="1932" dy="853" grid="1" gridSize="10" guides="1" tooltips="1" connect="1" arrows="1" fold="1" page="1" pageScale="1" pageWidth="1700" pageHeight="1100" math="0" shadow="0">
      <root>
        <mxCell id="0" />
        <mxCell id="1" parent="0" />
        <mxCell id="pcoLTdM2pXEL5jSf5iQc-3" value="" style="outlineConnect=0;dashed=0;verticalLabelPosition=bottom;verticalAlign=top;align=center;html=1;shape=mxgraph.aws3.internet_3;fillColor=#D2D3D3;gradientColor=none;" vertex="1" parent="1">
          <mxGeometry x="660" y="326" width="79.5" height="54" as="geometry" />
        </mxCell>
        <mxCell id="pcoLTdM2pXEL5jSf5iQc-4" value="Internet" style="text;html=1;align=center;verticalAlign=middle;whiteSpace=wrap;rounded=0;" vertex="1" parent="1">
          <mxGeometry x="669.75" y="380" width="60" height="30" as="geometry" />
        </mxCell>
        <mxCell id="pcoLTdM2pXEL5jSf5iQc-5" value="" style="endArrow=none;html=1;rounded=0;exitX=0.5;exitY=1;exitDx=0;exitDy=0;" edge="1" parent="1" source="pcoLTdM2pXEL5jSf5iQc-4" target="pcoLTdM2pXEL5jSf5iQc-6">
          <mxGeometry width="50" height="50" relative="1" as="geometry">
            <mxPoint x="710" y="360" as="sourcePoint" />
            <mxPoint x="760" y="310" as="targetPoint" />
          </mxGeometry>
        </mxCell>
        <mxCell id="pcoLTdM2pXEL5jSf5iQc-6" value="" style="sketch=0;points=[[0.015,0.015,0],[0.985,0.015,0],[0.985,0.985,0],[0.015,0.985,0],[0.25,0,0],[0.5,0,0],[0.75,0,0],[1,0.25,0],[1,0.5,0],[1,0.75,0],[0.75,1,0],[0.5,1,0],[0.25,1,0],[0,0.75,0],[0,0.5,0],[0,0.25,0]];verticalLabelPosition=bottom;html=1;verticalAlign=top;aspect=fixed;align=center;pointerEvents=1;shape=mxgraph.cisco19.rect;prIcon=media_server;fillColor=#FAFAFA;strokeColor=#005073;" vertex="1" parent="1">
          <mxGeometry x="667.75" y="450" width="64" height="50" as="geometry" />
        </mxCell>
        <mxCell id="pcoLTdM2pXEL5jSf5iQc-7" value="Server Media" style="text;html=1;align=center;verticalAlign=middle;whiteSpace=wrap;rounded=0;" vertex="1" parent="1">
          <mxGeometry x="669.75" y="500" width="60" height="30" as="geometry" />
        </mxCell>
        <mxCell id="pcoLTdM2pXEL5jSf5iQc-8" value="" style="points=[[0.35,0,0],[0.98,0.51,0],[1,0.71,0],[0.67,1,0],[0,0.795,0],[0,0.65,0]];verticalLabelPosition=bottom;sketch=0;html=1;verticalAlign=top;aspect=fixed;align=center;pointerEvents=1;shape=mxgraph.cisco19.user;fillColor=#005073;strokeColor=none;" vertex="1" parent="1">
          <mxGeometry x="600" y="560" width="50" height="50" as="geometry" />
        </mxCell>
        <mxCell id="pcoLTdM2pXEL5jSf5iQc-9" value="" style="points=[[0.35,0,0],[0.98,0.51,0],[1,0.71,0],[0.67,1,0],[0,0.795,0],[0,0.65,0]];verticalLabelPosition=bottom;sketch=0;html=1;verticalAlign=top;aspect=fixed;align=center;pointerEvents=1;shape=mxgraph.cisco19.user;fillColor=#005073;strokeColor=none;" vertex="1" parent="1">
          <mxGeometry x="750" y="560" width="50" height="50" as="geometry" />
        </mxCell>
        <mxCell id="pcoLTdM2pXEL5jSf5iQc-10" value="Klien nirkabel" style="text;html=1;align=center;verticalAlign=middle;whiteSpace=wrap;rounded=0;" vertex="1" parent="1">
          <mxGeometry x="595" y="620" width="60" height="30" as="geometry" />
        </mxCell>
        <mxCell id="pcoLTdM2pXEL5jSf5iQc-11" value="Klien nirkabel" style="text;html=1;align=center;verticalAlign=middle;whiteSpace=wrap;rounded=0;" vertex="1" parent="1">
          <mxGeometry x="750" y="620" width="60" height="30" as="geometry" />
        </mxCell>
        <mxCell id="pcoLTdM2pXEL5jSf5iQc-13" value="" style="endArrow=none;html=1;rounded=0;exitX=0.35;exitY=0;exitDx=0;exitDy=0;exitPerimeter=0;entryX=0.5;entryY=1;entryDx=0;entryDy=0;" edge="1" parent="1" source="pcoLTdM2pXEL5jSf5iQc-8" target="pcoLTdM2pXEL5jSf5iQc-7">
          <mxGeometry width="50" height="50" relative="1" as="geometry">
            <mxPoint x="570" y="520" as="sourcePoint" />
            <mxPoint x="620" y="470" as="targetPoint" />
          </mxGeometry>
        </mxCell>
        <mxCell id="pcoLTdM2pXEL5jSf5iQc-14" value="" style="endArrow=none;html=1;rounded=0;exitX=0.35;exitY=0;exitDx=0;exitDy=0;exitPerimeter=0;entryX=0.5;entryY=1;entryDx=0;entryDy=0;" edge="1" parent="1" source="pcoLTdM2pXEL5jSf5iQc-9" target="pcoLTdM2pXEL5jSf5iQc-7">
          <mxGeometry width="50" height="50" relative="1" as="geometry">
            <mxPoint x="770" y="558" as="sourcePoint" />
            <mxPoint x="620" y="470" as="targetPoint" />
          </mxGeometry>
        </mxCell>
        <mxCell id="pcoLTdM2pXEL5jSf5iQc-16" value="" style="html=1;verticalLabelPosition=bottom;align=center;labelBackgroundColor=#ffffff;verticalAlign=top;strokeWidth=2;strokeColor=#0080F0;shadow=0;dashed=0;shape=mxgraph.ios7.icons.radio;" vertex="1" parent="1">
          <mxGeometry x="605" y="680" width="50" height="30" as="geometry" />
        </mxCell>
        <mxCell id="pcoLTdM2pXEL5jSf5iQc-17" value="" style="html=1;verticalLabelPosition=bottom;align=center;labelBackgroundColor=#ffffff;verticalAlign=top;strokeWidth=2;strokeColor=#0080F0;shadow=0;dashed=0;shape=mxgraph.ios7.icons.radio;" vertex="1" parent="1">
          <mxGeometry x="755" y="680" width="50" height="30" as="geometry" />
        </mxCell>
        <mxCell id="pcoLTdM2pXEL5jSf5iQc-18" value="" style="endArrow=none;html=1;rounded=0;exitX=0.411;exitY=0.086;exitDx=0;exitDy=0;exitPerimeter=0;entryX=0.5;entryY=1;entryDx=0;entryDy=0;" edge="1" parent="1" source="pcoLTdM2pXEL5jSf5iQc-16" target="pcoLTdM2pXEL5jSf5iQc-10">
          <mxGeometry width="50" height="50" relative="1" as="geometry">
            <mxPoint x="810" y="600" as="sourcePoint" />
            <mxPoint x="860" y="550" as="targetPoint" />
          </mxGeometry>
        </mxCell>
        <mxCell id="pcoLTdM2pXEL5jSf5iQc-19" value="" style="endArrow=none;html=1;rounded=0;exitX=0.539;exitY=0.138;exitDx=0;exitDy=0;exitPerimeter=0;entryX=0.5;entryY=1;entryDx=0;entryDy=0;" edge="1" parent="1" source="pcoLTdM2pXEL5jSf5iQc-17" target="pcoLTdM2pXEL5jSf5iQc-11">
          <mxGeometry width="50" height="50" relative="1" as="geometry">
            <mxPoint x="790" y="610" as="sourcePoint" />
            <mxPoint x="840" y="560" as="targetPoint" />
          </mxGeometry>
        </mxCell>
        <mxCell id="pcoLTdM2pXEL5jSf5iQc-20" value="Analog output" style="text;html=1;align=center;verticalAlign=middle;whiteSpace=wrap;rounded=0;" vertex="1" parent="1">
          <mxGeometry x="595" y="710" width="60" height="30" as="geometry" />
        </mxCell>
        <mxCell id="pcoLTdM2pXEL5jSf5iQc-21" value="Analog output" style="text;html=1;align=center;verticalAlign=middle;whiteSpace=wrap;rounded=0;" vertex="1" parent="1">
          <mxGeometry x="750" y="710" width="60" height="30" as="geometry" />
        </mxCell>
      </root>
    </mxGraphModel>
  </diagram>
</mxfile>
